<svg xmlns="http://www.w3.org/2000/svg" width="22" height="15" viewBox="0 0 22 15" fill="none"><path d="M0.452861 1.20474C3.42973 3.50593 8.6532 7.5544 10.1884 8.81673C10.3945 8.9871 10.6156 9.07371 10.8451 9.07371C11.0741 9.07371 11.2948 8.98791 11.5004 8.81835C13.037 7.55479 18.2604 3.50593 21.2373 1.20474C21.4227 1.06175 21.4509 0.810407 21.3009 0.635588C20.954 0.231622 20.4368 0 19.8826 0H1.8076C1.25336 0 0.736145 0.231622 0.389316 0.635627C0.239266 0.810407 0.267522 1.06175 0.452861 1.20474Z" fill="white"></path><path d="M21.4279 2.44959C21.2677 2.38153 21.0793 2.40527 20.946 2.50921C17.6447 5.06371 13.4314 8.33805 12.1057 9.42837C11.3617 10.0414 10.3291 10.0414 9.58334 9.42756C8.17035 8.26551 3.43888 4.59404 0.743984 2.50917C0.609819 2.40523 0.420964 2.3823 0.262102 2.44955C0.102392 2.51726 0 2.66307 0 2.82378V13.1965C0 14.1064 0.810621 14.8464 1.80751 14.8464H19.8825C20.8794 14.8464 21.69 14.1064 21.69 13.1965V2.82378C21.69 2.66307 21.5876 2.51687 21.4279 2.44959Z" fill="white"></path></svg>