<svg xmlns="http://www.w3.org/2000/svg" width="20" height="21" viewBox="0 0 20 21" fill="none"><path d="M18.3952 13.1317C17.1707 13.1317 15.9684 12.9401 14.8291 12.5635C14.2708 12.373 13.5845 12.5478 13.2438 12.8978L10.995 14.596C8.38701 13.2034 6.78056 11.597 5.40743 9.0078L7.05509 6.81692C7.48316 6.38929 7.6367 5.76462 7.45274 5.17851C7.07462 4.03285 6.88253 2.83076 6.88253 1.60539C6.88259 0.720168 6.16264 0 5.27775 0H1.60484C0.719946 0 0 0.720168 0 1.60533C0 11.7517 8.25196 20.0061 18.3952 20.0061C19.2801 20.0061 20 19.2859 20 18.4008V14.737C19.9999 13.8519 19.28 13.1317 18.3952 13.1317Z" fill="white"></path></svg>