<svg xmlns="http://www.w3.org/2000/svg" width="60" height="61" viewBox="0 0 60 61" fill="none"><path d="M39.999 17.0017C39.999 10.8767 33.277 2.00171 29.999 2.00171C26.721 2.00171 19.999 10.8767 19.999 17.0017V39.0017H39.999V17.0017Z" stroke="#4C6FFF" stroke-width="2" stroke-miterlimit="10"></path><path d="M19.9989 39.0017V42.0017C19.9989 42.5537 19.5509 43.0017 18.9989 43.0017H12.9989C12.4349 43.0017 11.9849 42.5387 11.9999 41.9757C12.1369 36.6067 13.4419 29.0167 19.9989 27.4547" stroke="#4C6FFF" stroke-width="2" stroke-miterlimit="10"></path><path d="M39.999 39.0017V42.0017C39.999 42.5537 40.447 43.0017 40.999 43.0017H46.999C47.563 43.0017 48.013 42.5387 47.998 41.9757C47.861 36.6067 46.557 29.0157 39.999 27.4547" stroke="#4C6FFF" stroke-width="2" stroke-miterlimit="10"></path><path d="M29.999 44.0017V54.0017" stroke="#4C6FFF" stroke-width="2" stroke-miterlimit="10"></path><path d="M34.999 42.0017V46.0017" stroke="#4C6FFF" stroke-width="2" stroke-miterlimit="10"></path><path d="M24.999 42.0017V46.0017" stroke="#4C6FFF" stroke-width="2" stroke-miterlimit="10"></path><path d="M24.999 48.0017V50.0017" stroke="#4C6FFF" stroke-width="2" stroke-miterlimit="10"></path><path d="M50.999 1.00171V6.00171" stroke="#4C6FFF" stroke-width="2" stroke-miterlimit="10"></path><path d="M50.999 10.0017V15.0017" stroke="#4C6FFF" stroke-width="2" stroke-miterlimit="10"></path><path d="M57.999 8.00171H52.999" stroke="#4C6FFF" stroke-width="2" stroke-miterlimit="10"></path><path d="M48.999 8.00171H43.999" stroke="#4C6FFF" stroke-width="2" stroke-miterlimit="10"></path><path d="M12.499 4.50171V3.50171H13.499V4.50171H12.499Z" stroke="#4C6FFF"></path><path d="M12.499 8.50171V7.50171H13.499V8.50171H12.499Z" stroke="#4C6FFF"></path><path d="M12.499 12.5017V11.5017H13.499V12.5017H12.499Z" stroke="#4C6FFF"></path><path d="M12.499 16.5017V15.5017H13.499V16.5017H12.499Z" stroke="#4C6FFF"></path><path d="M12.499 20.5017V19.5017H13.499V20.5017H12.499Z" stroke="#4C6FFF"></path><path d="M54.499 36.5017V35.5017H55.499V36.5017H54.499Z" stroke="#4C6FFF"></path><path d="M54.499 40.5017V39.5017H55.499V40.5017H54.499Z" stroke="#4C6FFF"></path><path d="M47.499 22.5017V21.5017H48.499V22.5017H47.499Z" stroke="#4C6FFF"></path><path d="M47.499 26.5017V25.5017H48.499V26.5017H47.499Z" stroke="#4C6FFF"></path><path d="M54.499 44.5017V43.5017H55.499V44.5017H54.499Z" stroke="#4C6FFF"></path><path d="M54.499 48.5017V47.5017H55.499V48.5017H54.499Z" stroke="#4C6FFF"></path><path d="M7.49902 33.5017V32.5017H8.49902V33.5017H7.49902Z" stroke="#4C6FFF"></path><path d="M7.49902 37.5017V36.5017H8.49902V37.5017H7.49902Z" stroke="#4C6FFF"></path><path d="M29.499 10.5017V9.50171H30.499V10.5017H29.499Z" stroke="#4C6FFF"></path><path d="M29.499 14.5017V13.5017H30.499V14.5017H29.499Z" stroke="#4C6FFF"></path><path d="M29.999 30.0017C33.3127 30.0017 35.999 27.3154 35.999 24.0017C35.999 20.688 33.3127 18.0017 29.999 18.0017C26.6853 18.0017 23.999 20.688 23.999 24.0017C23.999 27.3154 26.6853 30.0017 29.999 30.0017Z" stroke="#4C6FFF" stroke-width="2" stroke-miterlimit="10"></path><path d="M19.999 58.0017H21.999" stroke="#4C6FFF" stroke-width="2" stroke-miterlimit="10"></path><path d="M23.999 58.0017H25.999" stroke="#4C6FFF" stroke-width="2" stroke-miterlimit="10"></path><path d="M16.342 54.5957C15.267 52.9787 13.086 52.0017 10.999 52.0017C7.68502 52.0017 4.99902 54.6877 4.99902 58.0017H17.999" stroke="#4C6FFF" stroke-width="2" stroke-miterlimit="10"></path><path d="M11.6938 52.0377C11.6938 49.2767 14.2378 47.0017 16.9988 47.0017C18.4578 47.0017 19.7698 47.6267 20.6838 48.6227" stroke="#4C6FFF" stroke-width="2" stroke-miterlimit="10"></path><path d="M40.53 53.6067C41.961 51.4347 44.204 50.0017 46.999 50.0017C51.417 50.0017 54.999 53.5837 54.999 58.0017H27.999" stroke="#4C6FFF" stroke-width="2" stroke-miterlimit="10"></path><path d="M37.1641 48.0707C37.4361 48.0257 37.7151 48.0017 37.9991 48.0017C40.1481 48.0017 42.0261 49.4167 42.7331 51.3197" stroke="#4C6FFF" stroke-width="2" stroke-miterlimit="10"></path></svg>