<svg xmlns="http://www.w3.org/2000/svg" width="28" height="22" viewBox="0 0 28 22" fill="none"><path d="M0 6.41663H27.5V22H0V6.41663Z" fill="#F9C45C"></path><path d="M0 0V4.58333H27.5V0H0ZM2.75 3.20833C2.5687 3.20833 2.39147 3.15457 2.24073 3.05385C2.08998 2.95312 1.97249 2.80996 1.90311 2.64246C1.83373 2.47496 1.81558 2.29065 1.85095 2.11283C1.88632 1.93502 1.97362 1.77168 2.10182 1.64349C2.23002 1.51529 2.39335 1.42798 2.57117 1.39261C2.74898 1.35724 2.93329 1.3754 3.10079 1.44478C3.26829 1.51416 3.41146 1.63165 3.51218 1.78239C3.61291 1.93314 3.66667 2.11037 3.66667 2.29167C3.66667 2.53478 3.57009 2.76794 3.39818 2.93985C3.22627 3.11176 2.99312 3.20833 2.75 3.20833ZM5.5 3.20833C5.3187 3.20833 5.14147 3.15457 4.99073 3.05385C4.83998 2.95312 4.72249 2.80996 4.65311 2.64246C4.58373 2.47496 4.56558 2.29065 4.60095 2.11283C4.63632 1.93502 4.72362 1.77168 4.85182 1.64349C4.98002 1.51529 5.14335 1.42798 5.32117 1.39261C5.49898 1.35724 5.68329 1.3754 5.85079 1.44478C6.01829 1.51416 6.16146 1.63165 6.26218 1.78239C6.36291 1.93314 6.41667 2.11037 6.41667 2.29167C6.41667 2.53478 6.32009 2.76794 6.14818 2.93985C5.97627 3.11176 5.74312 3.20833 5.5 3.20833ZM8.25 3.20833C8.0687 3.20833 7.89147 3.15457 7.74073 3.05385C7.58998 2.95312 7.47249 2.80996 7.40311 2.64246C7.33373 2.47496 7.31558 2.29065 7.35095 2.11283C7.38632 1.93502 7.47362 1.77168 7.60182 1.64349C7.73002 1.51529 7.89335 1.42798 8.07117 1.39261C8.24898 1.35724 8.43329 1.3754 8.60079 1.44478C8.76829 1.51416 8.91146 1.63165 9.01218 1.78239C9.11291 1.93314 9.16667 2.11037 9.16667 2.29167C9.16667 2.53478 9.07009 2.76794 8.89818 2.93985C8.72627 3.11176 8.49312 3.20833 8.25 3.20833Z" fill="#F9C45C"></path></svg>