<svg xmlns="http://www.w3.org/2000/svg" width="26" height="22" viewBox="0 0 26 22" fill="none"><path d="M18.7412 13.8517C22.3413 13.8517 25.2597 10.9333 25.2597 7.33322C25.2597 3.73314 22.3413 0.814697 18.7412 0.814697C15.1411 0.814697 12.2227 3.73314 12.2227 7.33322C12.2227 10.9333 15.1411 13.8517 18.7412 13.8517Z" fill="#6AC75A"></path><path d="M8.14818 22C9.0482 22 9.77781 21.2704 9.77781 20.3704C9.77781 19.4703 9.0482 18.7407 8.14818 18.7407C7.24816 18.7407 6.51855 19.4703 6.51855 20.3704C6.51855 21.2704 7.24816 22 8.14818 22Z" fill="#6AC75A"></path><path d="M18.741 22C19.641 22 20.3706 21.2704 20.3706 20.3704C20.3706 19.4703 19.641 18.7407 18.741 18.7407C17.8409 18.7407 17.1113 19.4703 17.1113 20.3704C17.1113 21.2704 17.8409 22 18.741 22Z" fill="#6AC75A"></path><path d="M10.5926 7.33333H6.43704L4.84815 0.611111C4.80365 0.438646 4.70387 0.285512 4.56407 0.175145C4.42427 0.0647775 4.25216 0.00325752 4.07407 0H0.814815C0.598713 0 0.391461 0.0858463 0.238654 0.238654C0.0858463 0.391461 0 0.598713 0 0.814815C0 1.03092 0.0858463 1.23817 0.238654 1.39098C0.391461 1.54378 0.598713 1.62963 0.814815 1.62963H3.42222L7.08889 17.1111H20.5333L21.1852 15.1148C19.9641 15.4988 18.6697 15.5898 17.4068 15.3802C16.144 15.1706 14.9484 14.6665 13.9167 13.9087C12.8851 13.1508 12.0466 12.1606 11.469 11.0182C10.8915 9.8758 10.5912 8.61341 10.5926 7.33333Z" fill="#6AC75A"></path></svg>