<svg xmlns="http://www.w3.org/2000/svg" width="27" height="22" viewBox="0 0 27 22" fill="none"><path d="M23.8068 6.17214V0C19.9248 2.7326 15.326 4.26553 10.5808 4.40867H7.05388V13.226C7.05388 15.9153 7.05388 20.0154 12.0357 21.9993H12.3443C12.5571 22.0079 12.7657 21.9391 12.9318 21.8058C13.0978 21.6725 13.21 21.4836 13.2476 21.274C13.2852 21.0644 13.2457 20.8483 13.1364 20.6656C13.0271 20.4829 12.8554 20.3459 12.6529 20.2799C8.81735 18.781 8.81735 15.8271 8.81735 13.226H10.5808C15.3483 13.2386 19.9853 14.7843 23.8068 17.6347V11.4626C24.5084 11.4626 25.1812 11.1839 25.6773 10.6878C26.1734 10.1917 26.452 9.5189 26.452 8.81735C26.452 8.1158 26.1734 7.44298 25.6773 6.94691C25.1812 6.45083 24.5084 6.17214 23.8068 6.17214ZM0 7.05388V10.5808C0 11.2824 0.27869 11.9552 0.774762 12.4513C1.27083 12.9473 1.94365 13.226 2.6452 13.226H5.29041V4.40867H2.6452C1.94365 4.40867 1.27083 4.68736 0.774762 5.18344C0.27869 5.67951 0 6.35233 0 7.05388Z" fill="#4C6FFF"></path></svg>