<svg width="95" height="13" viewBox="0 0 95 13" fill="none" xmlns="http://www.w3.org/2000/svg">
                    <path d="M10.82 12.78L6.68 10.7L2.53 12.74L3.23 8.17L0 4.84L4.57 4.1L6.73 0L8.85 4.12L13.42 4.9L10.16 8.2L10.82 12.78Z" fill="#FFBB00"></path>
                    <path d="M31.2099 12.78L27.0699 10.7L22.9099 12.74L23.6199 8.17L20.3899 4.84L24.9599 4.1L27.1199 0L29.2399 4.12L33.8099 4.9L30.5499 8.2L31.2099 12.78Z" fill="#FFBB00"></path>
                    <path d="M51.59 12.78L47.46 10.7L43.3 12.74L44 8.17L40.77 4.84L45.34 4.1L47.5 0L49.62 4.12L54.19 4.9L50.93 8.2L51.59 12.78Z" fill="#FFBB00"></path>
                    <path d="M71.9799 12.78L67.8399 10.7L63.6799 12.74L64.3899 8.17L61.1599 4.84L65.7299 4.1L67.8899 0L70.0099 4.12L74.5799 4.9L71.3099 8.2L71.9799 12.78Z" fill="#FFBB00"></path>
                    <path d="M92.36 12.78L88.22 10.7L84.07 12.74L84.77 8.17L81.54 4.84L86.11 4.1L88.27 0L90.39 4.12L94.96 4.9L91.7 8.2L92.36 12.78Z" fill="#FFBB00"></path>
                </svg>