<svg xmlns="http://www.w3.org/2000/svg" width="60" height="61" viewBox="0 0 60 61" fill="none"><path d="M28.999 42.0017V58.0017" stroke="#4C6FFF" stroke-width="2" stroke-miterlimit="10"></path><path d="M25.3233 42.0017L21.8433 57.7987" stroke="#4C6FFF" stroke-width="2" stroke-miterlimit="10"></path><path d="M32.6748 42.0017L36.1548 57.7987" stroke="#4C6FFF" stroke-width="2" stroke-miterlimit="10"></path><path d="M16.999 31.0017C21.9696 31.0017 25.999 26.9723 25.999 22.0017C25.999 17.0311 21.9696 13.0017 16.999 13.0017C12.0285 13.0017 7.99902 17.0311 7.99902 22.0017C7.99902 26.9723 12.0285 31.0017 16.999 31.0017Z" stroke="#4C6FFF" stroke-width="2" stroke-miterlimit="10"></path><path d="M29.3979 18.6027L33.9989 14.0017H42.9989" stroke="#4C6FFF" stroke-width="2" stroke-miterlimit="10"></path><path d="M23.363 28.3657L16.999 22.0017V13.0017" stroke="#4C6FFF" stroke-width="2" stroke-miterlimit="10"></path><path d="M45.999 9.00171H3.99902C2.89402 9.00171 1.99902 8.10671 1.99902 7.00171V5.00171C1.99902 3.89671 2.89402 3.00171 3.99902 3.00171H53.999C55.104 3.00171 55.999 3.89671 55.999 5.00171V7.00171C55.999 8.10671 55.104 9.00171 53.999 9.00171H48.999" stroke="#4C6FFF" stroke-width="2" stroke-miterlimit="10"></path><path d="M53.999 29.0017V40.0017C53.999 41.1067 53.104 42.0017 51.999 42.0017H5.99902C4.89402 42.0017 3.99902 41.1067 3.99902 40.0017V9.00171" stroke="#4C6FFF" stroke-width="2" stroke-miterlimit="10"></path><path d="M53.999 9.00171V16.0017" stroke="#4C6FFF" stroke-width="2" stroke-miterlimit="10"></path><path d="M56.999 27.0017V19.0017H48.999" stroke="#4C6FFF" stroke-width="2" stroke-miterlimit="10"></path><path d="M22.3979 37.6027L31.9989 28.0017L39.9989 36.0017L56.9989 19.0017" stroke="#4C6FFF" stroke-width="2" stroke-miterlimit="10"></path><path d="M49.499 38.5017V37.5017H50.499V38.5017H49.499Z" stroke="#4C6FFF"></path><path d="M45.499 38.5017V37.5017H46.499V38.5017H45.499Z" stroke="#4C6FFF"></path><path d="M5.49902 46.5017V45.5017H6.49902V46.5017H5.49902Z" stroke="#4C6FFF"></path><path d="M1.49902 46.5017V45.5017H2.49902V46.5017H1.49902Z" stroke="#4C6FFF"></path><path d="M13.499 46.5017V45.5017H14.499V46.5017H13.499Z" stroke="#4C6FFF"></path><path d="M17.499 46.5017V45.5017H18.499V46.5017H17.499Z" stroke="#4C6FFF"></path><path d="M9.49902 46.5017V45.5017H10.499V46.5017H9.49902Z" stroke="#4C6FFF"></path></svg>