<?xml version="1.0" encoding="iso-8859-1"?>
<!-- Uploaded to: SVG Repo, www.svgrepo.com, Generator: SVG Repo Mixer Tools -->
<svg fill="#000000" height="800px" width="800px" version="1.1" id="Layer_1" xmlns="http://www.w3.org/2000/svg" xmlns:xlink="http://www.w3.org/1999/xlink" 
	 viewBox="0 0 512 512" xml:space="preserve">
<g>
	<g>
		<path d="M486.881,179.574H25.119C11.268,179.574,0,190.842,0,204.693v102.614c0,13.851,11.268,25.119,25.119,25.119h461.762
			c13.851,0,25.119-11.268,25.119-25.119V204.693C512,190.842,500.732,179.574,486.881,179.574z M495.967,307.307
			c0,5.01-4.076,9.086-9.086,9.086H25.119c-5.01,0-9.086-4.076-9.086-9.086V204.693c0-5.01,4.076-9.086,9.086-9.086h461.762
			c5.01,0,9.086,4.076,9.086,9.086V307.307z"/>
	</g>
</g>
<g>
	<g>
		<path d="M290.268,246.034c-1.178-3.626-4.255-6.22-8.029-6.767l-11.969-1.739l-5.352-10.845c-1.688-3.419-5.104-5.544-8.918-5.544
			s-7.231,2.124-8.918,5.543l-5.353,10.845l-11.967,1.739c-3.774,0.548-6.851,3.141-8.029,6.769
			c-1.179,3.627-0.214,7.534,2.516,10.194l8.661,8.442l-2.045,11.919c-0.646,3.758,0.871,7.485,3.956,9.728
			c1.743,1.267,3.783,1.91,5.836,1.91c1.581,0,3.169-0.382,4.637-1.153L256,281.446l10.705,5.628
			c3.376,1.774,7.389,1.486,10.474-0.757c3.085-2.241,4.602-5.969,3.956-9.727l-2.045-11.92l8.66-8.441
			C290.481,253.567,291.447,249.66,290.268,246.034z M264.88,256.133c-1.89,1.842-2.751,4.496-2.306,7.095l0.671,3.915l-3.517-1.848
			c-2.337-1.227-5.125-1.227-7.461,0l-3.517,1.848l0.671-3.915c0.446-2.601-0.416-5.254-2.306-7.095l-2.845-2.773l3.931-0.572
			c2.611-0.379,4.868-2.019,6.036-4.386l1.758-3.563l1.758,3.563c1.167,2.365,3.425,4.006,6.036,4.386l3.931,0.572L264.88,256.133z"
			/>
	</g>
</g>
<g>
	<g>
		<path d="M375.779,246.034c-1.178-3.626-4.255-6.22-8.029-6.767l-11.969-1.739l-5.352-10.845c-1.688-3.419-5.104-5.544-8.918-5.544
			c-3.814,0-7.231,2.124-8.918,5.543l-5.353,10.845l-11.967,1.739c-3.774,0.548-6.851,3.141-8.028,6.769
			c-1.179,3.627-0.214,7.534,2.516,10.194l8.661,8.442l-2.045,11.919c-0.646,3.758,0.871,7.485,3.956,9.728
			c1.743,1.267,3.783,1.91,5.836,1.91c1.581,0,3.169-0.382,4.637-1.153l10.705-5.629l10.705,5.628
			c3.375,1.774,7.388,1.486,10.474-0.757c3.085-2.241,4.602-5.969,3.956-9.727l-2.045-11.92l8.66-8.441
			C375.993,253.567,376.958,249.66,375.779,246.034z M350.392,256.133c-1.89,1.842-2.751,4.496-2.306,7.095l0.671,3.915
			l-3.517-1.848c-2.337-1.227-5.125-1.227-7.461,0l-3.517,1.848l0.671-3.915c0.446-2.601-0.416-5.254-2.306-7.095l-2.845-2.773
			l3.931-0.572c2.611-0.379,4.868-2.019,6.036-4.386l1.758-3.563l1.758,3.563c1.167,2.365,3.425,4.006,6.036,4.386l3.931,0.572
			L350.392,256.133z"/>
	</g>
</g>
<g>
	<g>
		<path d="M461.291,246.034c-1.178-3.626-4.255-6.22-8.029-6.767l-11.969-1.739l-5.352-10.845c-1.688-3.419-5.104-5.544-8.918-5.544
			s-7.231,2.124-8.918,5.543l-5.353,10.845l-11.967,1.739c-3.774,0.548-6.851,3.141-8.028,6.769
			c-1.179,3.627-0.214,7.534,2.516,10.194l8.661,8.442l-2.045,11.919c-0.646,3.758,0.871,7.485,3.956,9.728
			c1.743,1.267,3.783,1.91,5.836,1.91c1.581,0,3.169-0.382,4.637-1.153l10.705-5.629l10.705,5.628
			c3.375,1.774,7.388,1.486,10.474-0.757c3.085-2.241,4.602-5.969,3.956-9.727l-2.045-11.92l8.66-8.441
			C461.504,253.567,462.47,249.66,461.291,246.034z M435.903,256.133c-1.89,1.842-2.751,4.496-2.306,7.095l0.671,3.915l-3.517-1.848
			c-2.337-1.227-5.125-1.227-7.461,0l-3.517,1.848l0.671-3.915c0.446-2.601-0.416-5.254-2.306-7.095l-2.845-2.773l3.931-0.572
			c2.611-0.379,4.868-2.019,6.036-4.386l1.758-3.563l1.758,3.563c1.167,2.365,3.425,4.006,6.036,4.386l3.931,0.572L435.903,256.133z
			"/>
	</g>
</g>
<g>
	<g>
		<path d="M119.245,246.034c-1.178-3.626-4.255-6.22-8.028-6.767l-11.969-1.739l-5.352-10.845c-1.688-3.419-5.104-5.544-8.918-5.544
			c-3.814,0-7.231,2.124-8.918,5.543l-5.353,10.845l-11.967,1.739c-3.774,0.548-6.851,3.141-8.028,6.769
			c-1.179,3.627-0.214,7.534,2.516,10.194l8.661,8.442l-2.045,11.919c-0.646,3.758,0.871,7.485,3.956,9.728
			c1.743,1.267,3.783,1.91,5.836,1.91c1.581,0,3.169-0.382,4.637-1.153l10.705-5.629l10.705,5.628
			c3.375,1.774,7.388,1.486,10.474-0.757c3.085-2.241,4.602-5.969,3.956-9.727l-2.045-11.92l8.66-8.441
			C119.458,253.567,120.424,249.66,119.245,246.034z M93.857,256.133c-1.89,1.842-2.751,4.496-2.306,7.095l0.671,3.915l-3.517-1.848
			c-2.337-1.227-5.125-1.227-7.461,0l-3.517,1.848l0.671-3.915c0.446-2.601-0.416-5.254-2.306-7.095l-2.845-2.773l3.931-0.572
			c2.611-0.379,4.868-2.019,6.036-4.386l1.758-3.563l1.758,3.563c1.167,2.365,3.425,4.006,6.036,4.386l3.931,0.572L93.857,256.133z"
			/>
	</g>
</g>
<g>
	<g>
		<path d="M204.756,246.034c-1.178-3.626-4.255-6.22-8.029-6.767l-11.969-1.739l-5.352-10.845c-1.688-3.419-5.104-5.544-8.918-5.544
			s-7.231,2.124-8.918,5.543l-5.353,10.845l-11.967,1.739c-3.774,0.548-6.851,3.141-8.028,6.769
			c-1.179,3.627-0.214,7.534,2.516,10.194l8.661,8.442l-2.045,11.919c-0.646,3.758,0.871,7.485,3.956,9.728
			c1.743,1.267,3.783,1.91,5.836,1.91c1.581,0,3.169-0.382,4.637-1.153l10.705-5.629l10.705,5.628
			c3.376,1.774,7.389,1.486,10.474-0.757c3.085-2.241,4.602-5.969,3.956-9.727l-2.045-11.92l8.66-8.441
			C204.97,253.567,205.935,249.66,204.756,246.034z M179.369,256.133c-1.89,1.842-2.751,4.496-2.306,7.095l0.671,3.915l-3.517-1.848
			c-2.337-1.227-5.125-1.227-7.461,0l-3.517,1.848l0.671-3.915c0.446-2.601-0.416-5.254-2.306-7.095l-2.845-2.773l3.931-0.572
			c2.611-0.379,4.868-2.019,6.036-4.386l1.758-3.563l1.758,3.563c1.167,2.365,3.425,4.006,6.036,4.386l3.931,0.572L179.369,256.133z
			"/>
	</g>
</g>
</svg>